<?xml version="1.0" standalone="no"?>
<!DOCTYPE svg PUBLIC "-//W3C//DTD SVG 20010904//EN"
 "http://www.w3.org/TR/2001/REC-SVG-20010904/DTD/svg10.dtd">
<svg version="1.0" xmlns="http://www.w3.org/2000/svg"
 width="494.000000pt" height="494.000000pt" viewBox="0 0 494.000000 494.000000"
 preserveAspectRatio="xMidYMid meet">
<metadata>
Created by potrace 1.14, written by Peter Selinger 2001-2017
</metadata>
<g transform="translate(0.000000,494.000000) scale(0.100000,-0.100000)"
fill="#000000" stroke="none">
<path d="M2278 4935 c-1 -1 -32 -6 -68 -10 -36 -4 -74 -8 -85 -9 -92 -11 -289
-54 -370 -82 -26 -8 -55 -17 -64 -19 -21 -4 -220 -85 -286 -116 -96 -44 -261
-142 -360 -212 -55 -39 -102 -73 -105 -76 -3 -3 -32 -28 -65 -56 -86 -71 -229
-216 -311 -315 -190 -229 -337 -493 -433 -778 -52 -154 -65 -203 -96 -377 -37
-201 -41 -530 -10 -765 38 -295 159 -633 324 -912 52 -87 172 -257 225 -317
109 -124 222 -237 296 -297 19 -16 37 -31 40 -35 3 -3 39 -31 80 -61 353 -259
745 -418 1165 -472 22 -3 60 -8 85 -12 49 -7 423 -8 455 -1 11 3 49 8 85 12
36 4 74 9 85 11 11 2 34 7 50 10 92 16 182 37 197 45 10 5 18 8 18 5 0 -6 210
65 290 99 59 25 232 109 283 138 33 19 271 178 277 186 3 3 30 26 60 51 426
346 729 845 846 1390 38 177 49 286 49 505 0 217 -15 376 -49 520 -2 11 -9 43
-16 70 -17 78 -69 239 -105 329 -126 312 -302 581 -535 816 -148 149 -236 221
-405 334 -97 65 -383 215 -448 235 -18 6 -59 20 -92 32 -129 46 -346 100 -460
114 -27 3 -66 8 -85 11 -37 6 -456 15 -462 9z"/>
</g>
</svg>
